<?xml version="1.0" standalone="no"?>
<!DOCTYPE svg PUBLIC "-//W3C//DTD SVG 20010904//EN"
 "http://www.w3.org/TR/2001/REC-SVG-20010904/DTD/svg10.dtd">
<svg version="1.0" xmlns="http://www.w3.org/2000/svg"
 width="16.000000pt" height="16.000000pt" viewBox="0 0 16.000000 16.000000"
 preserveAspectRatio="xMidYMid meet">
<metadata>
Created by potrace 1.11, written by Peter Selinger 2001-2013
</metadata>
<g transform="translate(0.000000,16.000000) scale(0.003125,-0.003125)"
fill="#000000" stroke="none">
<path d="M2450 4804 c-47 -24 -134 -67 -195 -95 -120 -57 -367 -176 -650 -314
-171 -83 -291 -141 -540 -260 -60 -29 -185 -89 -277 -134 -93 -44 -241 -116
-330 -160 -90 -43 -229 -110 -310 -150 l-148 -72 0 -132 0 -133 1235 0 1235 1
0 -1147 0 -1148 -925 0 c-874 0 -925 -1 -926 -17 -1 -26 -1 -205 0 -229 1 -19
7 -21 86 -20 l85 1 1 -135 c1 -74 2 -193 3 -265 l1 -130 1765 0 1765 0 2 259
c2 155 6 262 12 265 5 4 44 6 85 5 50 -1 76 2 77 10 1 16 1 196 0 229 l-1 27
-925 0 -925 0 2 1147 3 1147 1233 0 1232 0 0 134 0 133 -112 53 c-62 29 -198
95 -303 146 -393 192 -677 330 -680 330 -4 0 -284 135 -530 255 -242 118 -442
215 -580 280 -49 23 -147 70 -218 104 -70 33 -135 60 -145 60 -9 -1 -55 -21
-102 -45z"/>
</g>
</svg>
